<?xml version="1.0" encoding="UTF-8"?><svg id="_レイヤー_1" xmlns="http://www.w3.org/2000/svg" viewBox="0 0 581.37 166.91"><defs><style>.cls-1{fill:#3f3a37;}.cls-2{stroke-width:3.01px;}.cls-2,.cls-3{stroke:#3f3a37;stroke-linecap:round;stroke-linejoin:round;}.cls-3{stroke-width:3.01px;}</style></defs><g><path class="cls-1" d="M172.72,120.76h-4.08v-3.76h4.17v-3.36h3.62v3.36h7.26v3.72c.02,3.1-.05,5.71-.19,7.83-.14,2.12-.57,3.44-1.28,3.98-.71,.54-1.52,.85-2.43,.95-.86,.08-1.62,.06-2.27-.05-.65-.11-1.15-.24-1.52-.4-.37-.15-.56-.24-.58-.25v-3.79s.18,.07,.49,.22c.31,.14,.73,.28,1.26,.4,.53,.12,1.13,.13,1.8,.04,.21-.02,.4-.13,.56-.34,.17-.21,.28-.61,.34-1.21,.06-.6,.12-1.49,.18-2.66,.06-1.17,.08-2.73,.05-4.66h-3.76c-.02,2.41-.38,4.49-1.08,6.22-.7,1.73-1.63,3.14-2.77,4.21-1.14,1.07-2.09,1.8-2.84,2.18-.75,.38-1.13,.58-1.15,.58v-4.34c.72-.38,1.39-.93,2.03-1.63,.63-.7,1.15-1.62,1.55-2.74,.4-1.13,.61-2.62,.65-4.47Z"/><path class="cls-1" d="M195.8,127.02h-3.69v-10.31h5.87v-3.16h3.21v3.16h6.16v3.79c-.03,2.08-.35,3.89-.96,5.44-.61,1.55-1.38,2.78-2.3,3.69-.93,.91-1.89,1.65-2.9,2.23-1.01,.58-1.96,1-2.86,1.27-.9,.27-1.63,.45-2.19,.54-.56,.09-.85,.12-.89,.11v-3.67s.34-.03,.92-.13c.58-.1,1.31-.33,2.17-.68,.86-.35,1.73-.88,2.59-1.58,.86-.7,1.53-1.64,1.99-2.82,.46-1.17,.7-2.66,.72-4.47v-.12h-7.84v6.71Z"/><path class="cls-1" d="M215.05,118.36v-3.74h7.48v3.74h-7.48Zm12.13,.29h3.81c-.8,2.92-1.87,5.31-3.21,7.14-1.34,1.84-2.74,3.26-4.18,4.25-1.45,1-2.82,1.71-4.11,2.12-1.29,.42-2.35,.66-3.18,.73-.82,.07-1.24,.1-1.26,.08v-3.91s.34,0,.98-.04c.64-.04,1.46-.2,2.46-.49,1-.29,2.05-.84,3.15-1.65,1.1-.81,2.12-1.85,3.06-3.1,.94-1.25,1.76-2.97,2.48-5.14Z"/><path class="cls-1" d="M252.83,120.02v3.76h-10.07v9.85h-3.79v-20.09h3.79v6.47h10.07Z"/><path class="cls-1" d="M264.32,113.45h3.76c-.08,.46-.16,.88-.24,1.26-.08,.38-.13,.58-.14,.61h8.2v3.67c-.19,2.19-.65,4.09-1.38,5.71-.73,1.61-1.63,2.96-2.72,4.04-1.09,1.08-2.19,1.97-3.31,2.66-1.12,.7-2.17,1.23-3.14,1.59s-1.77,.62-2.37,.76c-.61,.14-.92,.2-.94,.18v-3.88s.3-.07,.84-.2c.54-.14,1.23-.38,2.07-.73,.84-.35,1.71-.84,2.62-1.47,.91-.63,1.75-1.45,2.52-2.46h-4.43v-3.57h5.87c.26-.93,.41-1.83,.46-2.71h-5.63c-.99,1.84-1.95,3.2-2.88,4.09-.93,.89-1.69,1.55-2.28,1.98-.59,.43-.9,.64-.94,.62v-4.63s.2-.15,.54-.44c.34-.3,.74-.75,1.2-1.38,.46-.62,.89-1.4,1.32-2.34,.42-.94,.75-2.05,.99-3.34Zm6.93,1.15v-3.79h1.82v3.79h-1.82Zm2.85,0v-3.79h1.82v3.79h-1.82Z"/><path class="cls-1" d="M287.47,127.02h-3.69v-10.31h5.87v-3.16h3.21v3.16h6.16v3.79c-.03,2.08-.35,3.89-.96,5.44-.61,1.55-1.38,2.78-2.3,3.69-.93,.91-1.89,1.65-2.9,2.23-1.01,.58-1.96,1-2.86,1.27-.9,.27-1.63,.45-2.19,.54-.56,.09-.85,.12-.89,.11v-3.67s.34-.03,.92-.13c.58-.1,1.31-.33,2.17-.68,.86-.35,1.73-.88,2.59-1.58,.86-.7,1.53-1.64,1.99-2.82,.46-1.17,.7-2.66,.72-4.47v-.12h-7.84v6.71Z"/><path class="cls-1" d="M306.72,118.36v-3.74h7.48v3.74h-7.48Zm12.13,.29h3.81c-.8,2.92-1.87,5.31-3.21,7.14-1.34,1.84-2.74,3.26-4.18,4.25-1.45,1-2.82,1.71-4.11,2.12-1.29,.42-2.35,.66-3.18,.73-.82,.07-1.24,.1-1.26,.08v-3.91s.34,0,.98-.04c.64-.04,1.46-.2,2.46-.49,1-.29,2.05-.84,3.15-1.65,1.1-.81,2.12-1.85,3.06-3.1,.94-1.25,1.76-2.97,2.48-5.14Z"/><path class="cls-1" d="M333.91,113.45h3.76c-.08,.46-.16,.88-.24,1.26-.08,.38-.13,.58-.14,.61h8.2v3.67c-.19,2.19-.65,4.09-1.38,5.71-.73,1.61-1.63,2.96-2.72,4.04-1.09,1.08-2.19,1.97-3.31,2.66-1.12,.7-2.17,1.23-3.14,1.59s-1.77,.62-2.37,.76c-.61,.14-.92,.2-.94,.18v-3.88s.3-.07,.84-.2c.54-.14,1.23-.38,2.07-.73,.84-.35,1.71-.84,2.62-1.47,.91-.63,1.75-1.45,2.52-2.46h-4.43v-3.57h5.87c.26-.93,.41-1.83,.46-2.71h-5.63c-.99,1.84-1.95,3.2-2.88,4.09-.93,.89-1.69,1.55-2.28,1.98-.59,.43-.9,.64-.94,.62v-4.63s.2-.15,.54-.44c.34-.3,.74-.75,1.2-1.38,.46-.62,.89-1.4,1.32-2.34,.42-.94,.75-2.05,.99-3.34Z"/><path class="cls-1" d="M364.73,114h4.31c-.67,1.39-1.49,2.7-2.46,3.93-.97,1.23-1.85,2.3-2.65,3.21v12.61h-3.79v-9.68c-1.23,.99-2.41,1.78-3.55,2.37-1.13,.59-2.04,1-2.71,1.23-.67,.23-1.02,.35-1.03,.35v-3.86s.42-.16,1.22-.49c.8-.33,1.82-.87,3.06-1.63,1.24-.76,2.53-1.8,3.87-3.12,1.34-1.32,2.58-2.96,3.72-4.93Z"/><path class="cls-1" d="M387.41,118.46h-11.75v-3.93h15.77v3.96c-.26,1.68-.8,3.23-1.64,4.65-.84,1.42-1.71,2.57-2.62,3.45-.91,.88-1.71,1.61-2.4,2.21l2.54,4.15h-4.44l-6.9-11.27h4.46l2.45,3.98c.51-.32,1.1-.85,1.76-1.58,.66-.73,1.25-1.59,1.76-2.58,.51-.98,.85-1.99,1.01-3.03Z"/><path class="cls-1" d="M399.04,125.24v-3.76h11.07v3.76h-11.07Z"/></g><g><g><path class="cls-1" d="M93.25,94.2c.06,.48-.18,1.15-.73,2.02-4.79,7.29-11.75,11.53-20.98,12.8-9.43,1.3-17.53-.76-24.4-6.26-6.68-5.3-10.82-12.63-12.32-22.05-1.45-9.11,.19-17.31,5-24.56,5.01-7.59,12.27-12.07,21.67-13.37,10.21-1.41,18.63,.56,25.14,5.85,.71,.59,1.1,1.13,1.16,1.65,.07,.57-.76,2.83-2.47,6.78-1.71,3.95-2.81,6.18-3.31,6.71-.22,.27-.51,.43-.89,.48-.16,.02-1.01-.48-2.57-1.51-1.87-1.23-3.67-2.14-5.4-2.74-2.62-.88-5.27-1.13-7.92-.77-4.59,.63-8.02,2.81-10.28,6.51-2.08,3.43-2.77,7.4-2.11,11.91,.67,4.57,2.48,8.21,5.41,10.95,3.18,2.98,7.01,4.15,11.5,3.53,2.66-.37,5.1-1.28,7.34-2.74,1.46-.96,2.92-2.22,4.37-3.79,1.2-1.32,1.88-1.99,2.04-2.01,.31-.04,.64,.09,.98,.38,.56,.48,2.14,2.19,4.72,5.14,2.65,3.06,3.99,4.77,4.03,5.1Z"/><path class="cls-1" d="M140.85,76.9c.63,6.89-1,12.68-4.84,17.38-3.84,4.7-9.18,7.4-16.07,8.13-6.67,.71-12.39-.77-17.21-4.49-4.82-3.71-7.65-8.87-8.46-15.5-.85-6.99,.56-12.92,4.27-17.78,3.71-4.85,9.22-7.69,16.46-8.47,7.06-.75,13,.82,17.77,4.68,4.77,3.86,7.44,9.22,8.07,16.05Zm-15.16,1.47c-.24-2.39-1.21-4.42-2.91-6.09-1.7-1.67-3.77-2.38-6.18-2.12-2.45,.26-4.36,1.42-5.73,3.46-1.29,1.91-1.8,4.08-1.53,6.49,.27,2.44,1.25,4.46,2.91,6.05,1.77,1.7,3.86,2.42,6.28,2.16,2.39-.25,4.26-1.4,5.64-3.43,1.26-1.9,1.77-4.07,1.52-6.52Z"/><path class="cls-1" d="M192.96,53.93c.13,2.24,.22,5.62,.27,10.11,.05,4.5,.14,7.87,.27,10.11,.13,2.18,.4,5.45,.81,9.81,.41,4.36,.68,7.61,.81,9.76,.05,.82-.3,1.36-1.05,1.61-1.14,.37-3.58,.67-7.32,.91-3.32,.21-5.64,.28-6.96,.19-.58-.05-.98-.39-1.17-1.01-.16-.9-.31-1.8-.46-2.71-.25-1.38-.51-2.06-.79-2.05,.43-.03-1.05,1.11-4.4,3.42-3.36,2.32-6.45,3.59-9.31,3.81-8.05,.64-13.13-2.55-15.27-9.65-.97-3.3-1.74-8.14-2.3-14.52-.61-6.9-.52-12.39,.28-16.49,.23-1.27,.82-1.95,1.76-2.03,1.44-.12,3.62-.3,6.56-.51,2.94-.21,5.13-.37,6.56-.48,.97-.08,1.48,.28,1.54,1.07,.02,.21,0,.53-.02,.96-.34,4.17-.34,8.37,0,12.61,.41,5.27,.86,8.86,1.35,10.77,.81,3.29,2.95,4.79,6.41,4.54,1.35-.1,2.77-.8,4.27-2.09,1.5-1.29,2.23-2.58,2.21-3.85-.02-1.12-.51-8.73-1.49-22.82-.07-1-.03-1.6,.11-1.79,.17-.32,.72-.51,1.66-.57,1.53-.1,3.84-.24,6.92-.41,3.08-.17,5.39-.29,6.92-.38,.94-.06,1.5,.14,1.68,.58,.08,.24,.13,.6,.16,1.09Z"/><path class="cls-1" d="M248.32,91.71c.02,.82-.39,1.3-1.24,1.44-.85,.14-3.07,.26-6.67,.37-3.84,.12-6.22,.11-7.14-.04-.92-.15-1.4-.76-1.44-1.82-.05-1.43-.08-3.58-.09-6.47-.01-2.89-.04-5.06-.09-6.51-.04-1.12-.13-2.8-.27-5.03-.14-2.23-.23-3.9-.27-5.03-.15-4.16-2.07-6.17-5.77-6.03-1.21,.05-2.61,.62-4.18,1.72-1.69,1.23-2.51,2.4-2.46,3.52,.36,8.19,.71,16.38,1.06,24.57,.04,1-.41,1.58-1.34,1.75-1.06,.17-3.24,.33-6.53,.48-3.56,.17-5.88,.2-6.96,.08-.95-.1-1.45-.58-1.5-1.43-.13-2.37-.3-5.93-.53-10.69-.22-4.76-.4-8.34-.53-10.74-.4-7.55-1.33-13.45-2.78-17.68-.08-.27-.12-.5-.13-.68-.03-.48,.19-.83,.65-1.04,1.96-.32,4.57-.79,7.83-1.41,4.93-1.18,7.71-1.78,8.34-1.8,.34-.02,.66,1,.93,3.04,.28,2.04,.59,3.05,.93,3.04-.34,.02,1.28-1.11,4.91-3.37,3.62-2.26,6.84-3.43,9.63-3.53,3.98-.14,7.33,.67,10.04,2.42,3.03,2.01,4.59,4.89,4.68,8.62,.12,4.84,.25,9.68,.37,14.52,.05,1.97,.14,4.92,.27,8.85,.13,3.93,.22,6.88,.27,8.85Z"/><path class="cls-1" d="M286.57,79.18c0,.91-.11,2.29-.34,4.15-.23,1.85-.34,3.21-.34,4.08,0,.87-.09,1.42-.27,1.66-.18,.24-.69,.59-1.51,1.05-3.93,2.17-8.28,3.27-13.06,3.33-8.8,.1-13.27-3.15-13.4-9.86-.04-2-.02-5.02,.06-9.04,.08-4.03,.1-7.04,.06-9.04-.02-1.34-.83-1.99-2.41-1.96-.12,0-.33,0-.61,.01-.28,.04-.48,.06-.6,.06-1.18,.03-1.78-.37-1.8-1.19-.01-.48,.01-1.23,.07-2.23,.06-1,.08-1.75,.07-2.23-.01-.64-.08-1.61-.18-2.91-.11-1.3-.17-2.27-.18-2.91-.01-.61,.98-.96,2.98-1.07,1.13-.05,1.73-.37,1.81-.95,.17-1.16,.19-2.98,.08-5.47-.2-3.91-.3-5.78-.3-5.6-.07-3.52,.24-5.29,.94-5.3,.85-.02,2.07,.14,3.66,.48,1.81,.37,3.06,.57,3.76,.63,1.61,.19,4.05,.44,7.31,.78,.79,.05,1.19,.31,1.19,.76,.01,1.21-.07,3.05-.26,5.51-.18,2.46-.27,4.31-.25,5.56,.01,1.49,.47,2.23,1.38,2.22,1.1,0,2.75-.07,4.98-.17,2.22-.1,3.9-.15,5.03-.16,.69,0,1.03,.23,1.03,.68,0,.7-.08,1.75-.23,3.14-.15,1.4-.23,2.45-.23,3.14,0,.73,.02,1.79,.05,3.19,.03,1.4,.05,2.46,.05,3.19,0,.64-.45,.96-1.35,.96-.62,0-1.66-.02-3.12-.06-1.46-.04-2.5-.05-3.12-.05-1.16,0-2.33,.02-3.49,.03-.47,0-.69,.67-.68,2.01,0,.73,.02,1.81,.03,3.23,.04,1.46,.07,2.54,.08,3.23,.02,2.55,.33,4.31,.93,5.27,.84,1.3,2.48,1.94,4.91,1.92,.77,0,1.87-.18,3.3-.54,1.43-.35,2.44-.53,3.02-.53,.65,0,.97,.33,.97,1Z"/><path class="cls-1" d="M341.93,28.74c.02-.67-.14,.33-.48,2.99-.46,3.36-.86,7.66-1.21,12.9-.44,5.94-.77,12.71-1.01,20.29-.39,12.53-.31,21.47,.22,26.8,.04,.58,.06,.94,.06,1.1-.01,.33-.25,.52-.7,.57-1.1,.12-5.14,.06-12.12-.11-1.65-.04-2.58-.38-2.81-1.02-.04-1.15-.07-2.31-.11-3.46-.03-.24-.14-.49-.35-.74-.18,.09-.42,.26-.7,.53-3.37,3.15-7.51,4.68-12.45,4.61-6.43-.09-11.56-2.37-15.43-6.87-3.69-4.3-5.55-9.7-5.55-16.23,0-6.62,1.85-12.07,5.58-16.34,3.95-4.54,9.31-6.78,16.02-6.69,4.74,.06,8.4,1.59,10.97,4.56,.43,.49,.73,.74,.92,.75,.28,0,.43-.39,.45-1.17,.05-2.34,.06-5.83,.03-10.48-.03-4.65-.02-8.12,.03-10.43,.02-.88,.28-1.38,.79-1.49,2.03-.05,4.83-.17,8.39-.35,6.36-.59,9.19-.87,8.46-.89,.7,.02,1.04,.41,1.01,1.17Zm-18.83,41.37c.05-2.4-.75-4.52-2.43-6.36-1.67-1.84-3.72-2.78-6.15-2.82-2.55-.04-4.59,.84-6.12,2.62-1.53,1.79-2.3,3.94-2.33,6.46-.03,2.46,.71,4.55,2.2,6.27,1.52,1.84,3.5,2.78,5.96,2.82,2.46,.04,4.53-.83,6.23-2.62,1.7-1.79,2.58-3.91,2.63-6.37Z"/><path class="cls-1" d="M392.01,73.42c-.44,6.91-2.95,12.37-7.47,16.42-4.52,4.05-10.21,5.88-17.12,5.54-6.7-.33-12.11-2.69-16.28-7.1-4.17-4.42-6.17-9.95-5.94-16.63,.25-7.04,2.55-12.68,6.97-16.9,4.41-4.22,10.28-6.17,17.56-5.81,7.08,.35,12.7,2.83,16.81,7.38,4.11,4.55,5.92,10.26,5.48,17.11Zm-15.19-.9c.13-2.39-.51-4.55-1.93-6.47-1.42-1.91-3.35-2.94-5.77-3.06-2.45-.12-4.52,.72-6.19,2.53-1.57,1.69-2.4,3.75-2.51,6.18-.11,2.46,.54,4.6,1.93,6.42,1.48,1.95,3.43,2.99,5.86,3.11,2.4,.12,4.42-.72,6.09-2.51,1.54-1.68,2.38-3.75,2.51-6.2Z"/><path class="cls-1" d="M464.99,70.24c-.51,4.71-1.26,7.94-2.23,9.7-1.01,1.85-3.4,5.22-7.13,10.14-3.81,5.07-6.36,8.2-7.71,9.37-.91,.79-2.96,1.03-6.15,.72-2.64-.26-4.31-.5-4.99-.75-.56-.21-1.07-.56-1.51-1.06-1.58-1.85-3.87-6.26-6.94-13.2-4.46,6.47-7.41,10.41-8.94,11.81-.8,.73-2.82,.96-6.07,.7-2.31-.18-3.8-.39-4.45-.62-1.49-.54-3.81-4.02-7.01-10.42-2.62-5.24-4.48-9.41-5.58-12.53-.67-1.99-.86-5.31-.55-9.94,.37-5.61,.75-9.02,1.15-10.24,.27-.77,.85-1.13,1.72-1.07,1.44,.1,3.59,.29,6.46,.59,2.87,.3,5.02,.5,6.46,.61,.72,.05,1.04,.58,.96,1.58-.07,.88-.2,2.22-.4,4.01-.2,1.8-.33,3.13-.4,4.01-.28,3.66-.39,6.38-.34,8.15,.01,.67,.71,2.44,2.08,5.3,1.37,2.86,2.24,4.31,2.61,4.34,.55,.04,1.67-1.22,3.37-3.8,1.39-2.17,2.31-3.79,2.78-4.87,.46-1.07,.87-3.79,1.24-8.15,.08-.91,.1-2.27,.08-4.08-.02-1.81,0-3.16,.08-4.04,.08-.94,.48-1.38,1.19-1.32,.87,.07,2.61,.2,5.2,.4,.64,.04,1.28,.08,1.93,.12-.03,0-.09-.01-.16-.04-.08-.02-.1-.02-.07,.02,.11,0,.22,.02,.33,.03,.41,.04,.81,.07,1.22,.11,1.19,.08,2.92,.26,5.19,.56,.68,.15,.98,.65,.9,1.5-.11,1.15-.35,2.89-.72,5.22-.37,2.33-.61,4.07-.72,5.22-.28,3.08-.34,5.05-.17,5.89,.24,1.06,.83,2.78,1.76,5.15,1.13,2.85,1.96,4.3,2.52,4.36,.55,.05,1.71-1.22,3.49-3.83,1.7-2.49,2.65-4.13,2.82-4.94,.24-1.14,.83-6.48,1.78-16.03,.1-1.06,.47-1.56,1.09-1.49,1.44,.14,3.6,.32,6.49,.52,2.89,.21,5.06,.4,6.49,.55,.84,.09,1.33,.57,1.45,1.44,.21,1.31,0,4.74-.6,10.29Z"/><path class="cls-1" d="M512.14,106.95c-.11,.81-.6,1.22-1.47,1.22-.86,0-3.08-.25-6.65-.74-3.81-.52-6.16-.92-7.05-1.22-.88-.3-1.26-.98-1.12-2.03,.18-1.41,.51-3.55,.98-6.39,.47-2.85,.8-4.99,.99-6.44,.15-1.11,.33-2.78,.56-5,.23-2.22,.42-3.89,.56-5,.54-4.12-1.03-6.43-4.7-6.9-1.2-.15-2.68,.18-4.41,1-1.87,.93-2.88,1.95-3.01,3.07-1,8.14-2.01,16.27-3.01,24.41-.12,.99-.66,1.49-1.62,1.5-1.08,0-3.25-.21-6.52-.6-3.55-.42-5.84-.77-6.89-1.07-.92-.26-1.34-.81-1.24-1.65,.27-2.35,.68-5.9,1.25-10.63,.56-4.73,.98-8.29,1.25-10.68,.85-7.51,.91-13.48,.18-17.9-.03-.28-.04-.51-.02-.69,.05-.48,.32-.79,.81-.92,1.99,0,4.64-.03,7.97-.09,5.06-.35,7.91-.48,8.54-.4,.34,.04,.48,1.09,.42,3.15-.06,2.06,.07,3.11,.42,3.15-.34-.04,1.45-.89,5.4-2.51,3.95-1.63,7.32-2.25,10.09-1.88,3.96,.52,7.13,1.88,9.53,4.05,2.66,2.49,3.72,5.58,3.2,9.28-.68,4.8-1.36,9.59-2.04,14.39-.28,1.95-.68,4.88-1.2,8.78-.52,3.9-.92,6.82-1.2,8.78Z"/><path class="cls-1" d="M545.94,59.88c-.86,5.46-2.19,10.51-3.97,15.14-2.01,4.73-3.99,9.44-5.95,14.15-.45,1.07-1.76,1.43-3.93,1.1-2.48-.38-3.79-1.06-3.92-2.07-1.44-10.07-2.1-15.77-1.9-17.09,.18-1.23,.51-3.05,1-5.47,.48-2.42,.82-4.24,1-5.47,.2-1.35,.45-3.39,.76-6.1,.31-2.72,.56-4.75,.76-6.1,.16-1.11,.53-1.63,1.09-1.54,.88,.13,2.19,.39,3.94,.77,1.74,.39,3.05,.65,3.93,.78,.88,.13,2.21,.28,3.99,.43,1.78,.15,3.11,.3,3.99,.44,.63,.1,.37,3.78-.78,11.04Zm-7.06,44.58c-.4,2.52-1.52,4.49-3.35,5.9-1.84,1.42-4.01,1.93-6.55,1.54-2.57-.39-4.5-1.53-5.82-3.41-1.31-1.88-1.79-4.1-1.41-6.65,.37-2.52,1.47-4.48,3.3-5.87,1.83-1.39,4.03-1.89,6.59-1.49,2.53,.39,4.48,1.52,5.82,3.39,1.35,1.87,1.82,4.07,1.42,6.59Z"/></g><line class="cls-2" x1="85.56" y1="122.44" x2="162.55" y2="122.44"/><line class="cls-3" x1="416.44" y1="122.82" x2="493.43" y2="122.82"/></g></svg>